<svg xmlns="http://www.w3.org/2000/svg" viewBox="36.25 22.2 60 60"><title>acalisthenics_logo</title><path
         style="fill:#030303;"
         d="m 28.170401,81.450719 c -3.875912,-0.5657 -8.523665,-2.52011 -12.20091,-5.13057 -3.257973,-2.31282 -7.0848317,-6.86299 -9.0312867,-10.7383 -1.059995,-2.1104 -2.387637,-6.244873 -2.756487,-8.584086 -0.406419,-2.577473 -0.406929,-7.542943 -0.0011,-10.047914 0.431205,-2.66115 1.516896,-6.027957 2.722515,-8.442709 0.942724,-1.888199 2.215354,-4.04454 2.590647,-4.389583 0.07914,-0.07276 0.416202,-0.489479 0.7490317,-0.926042 5.133692,-6.733685 13.743789,-10.980208 22.2631,-10.980208 8.51931,0 17.1294,4.246523 22.26307,10.980208 0.33283,0.436563 0.66989,0.853282 0.74903,0.926042 0.37529,0.345043 1.64792,2.501384 2.59065,4.389583 2.05788,4.121774 3.0123,8.311293 3.03844,13.3375 0.0426,8.202706 -2.74074,15.242359 -8.33037,21.068969 -4.50256,4.69346 -10.22318,7.71497 -16.17369,8.54261 -2.36169,0.32848 -6.20151,0.32599 -8.47268,-0.006 z m 10.19544,-1.66576 c 2.03359,-0.49446 6.04636,-2.0281 6.04636,-2.31086 0,-0.1262 -3.4338,-0.22946 -7.63066,-0.22946 -4.19687,0 -9.630579,-0.0789 -12.074921,-0.17527 -3.751419,-0.14795 -4.424963,-0.1174 -4.320495,0.19601 0.242935,0.72881 5.833173,2.59771 8.944826,2.99038 1.64689,0.20784 7.49775,-0.097 9.03489,-0.4708 z M 23.55641,75.905979 c 0.119015,-0.20962 1.471023,-3.59581 3.004463,-7.52488 1.533438,-3.92906 2.881978,-7.374283 2.996748,-7.656043 0.15184,-0.37277 0.29503,0.0106 0.52577,1.407823 l 0.3171,1.92011 -1.03483,2.29635 c -0.56916,1.26299 -1.45243,3.18931 -1.962813,4.28072 -1.410845,3.01694 -2.310164,5.33422 -2.162741,5.57275 0.07288,0.11793 0.356225,0.19756 0.629653,0.17696 0.365477,-0.0275 0.778581,-0.70627 1.559811,-2.56285 2.07195,-4.92391 1.9224,-4.84887 1.78084,-0.89357 l -0.12469,3.48392 1.42054,-0.0127 1.42053,-0.0128 0.71622,-1.68521 c 0.39393,-0.92689 0.81007,-1.68524 0.92476,-1.68524 0.11469,0 0.31746,-0.44648 0.45061,-0.99219 0.24129,-0.98896 0.24271,-0.9866 0.43827,0.72761 0.10791,0.94588 0.32908,2.17219 0.49149,2.72513 0.25387,0.86435 0.3909,0.99422 0.97707,0.92604 0.51042,-0.0594 0.66299,-0.2123 0.60703,-0.60846 -0.0411,-0.29105 -0.19669,-2.53195 -0.34573,-4.9798 -0.23934,-3.931 -0.2191,-4.6106 0.17342,-5.82083 0.54693,-1.68635 0.90852,-2.13445 0.90852,-1.1259 0,0.99223 1.47554,5.33626 3.17485,9.34684 l 1.3733,3.24114 h 2.37461 c 2.77351,0 3.20288,-0.22176 6.63474,-3.42674 4.48015,-4.18396 7.27897,-9.28905 8.54746,-15.590646 0.55579,-2.761104 0.42506,-9.537359 -0.23545,-12.203446 -2.29905,-9.279951 -8.70304,-16.667996 -17.28751,-19.943956 -2.56717,-0.979664 -6.68614,-1.751877 -9.3445,-1.751877 -4.56011,0 -9.815813,1.512265 -13.997677,4.027664 -2.950377,1.774659 -7.115397,5.884548 -8.8982917,8.780505 -1.459126,2.370066 -3.089632,6.237341 -3.730132,8.847228 -0.66633,2.715143 -0.799508,9.471101 -0.241359,12.243882 1.238819,6.154216 3.966864,11.218216 8.2566747,15.326656 3.276825,3.13828 3.528166,3.27312 6.41759,3.44266 3.029799,0.17778 2.971131,0.18315 3.243654,-0.29684 z m 7.117181,-1.04259 c -0.006,-0.65484 0.15982,-1.66687 0.36952,-2.24895 0.2294,-0.63675 0.3859,-0.84228 0.39289,-0.51594 0.006,0.29832 0.14039,0.67117 0.29779,0.82857 0.20517,0.20517 0.0973,0.68819 -0.38113,1.70656 l -0.6673,1.42039 -0.0118,-1.19063 z m 4.34527,-12.23697 c 0.10739,-0.90951 0.22541,-2.679163 0.26227,-3.93256 0.0614,-2.088901 0.17217,-2.508041 1.32828,-5.027084 1.76058,-3.836143 3.46015,-7.841329 4.64666,-10.95026 0.55537,-1.455208 1.01644,-2.50536 1.02461,-2.33367 0.0231,0.485595 -1.45771,6.869004 -2.10648,9.080545 -0.32017,1.091407 -0.74654,2.579688 -0.94748,3.307292 -0.36907,1.336365 -1.57141,4.945925 -3.06262,9.194277 -0.96837,2.7588 -1.42397,3.02194 -1.14524,0.66146 z m -7.37816,-2.522563 C 26.726632,58.33625 23.068209,46.702259 21.764681,41.417789 20.940152,38.075178 19.879467,32.683033 19.653383,30.684723 l -0.17167,-1.517359 2.344931,-0.294593 c 1.289711,-0.162025 3.459641,-0.37601 4.822068,-0.475522 l 2.477139,-0.18093 -0.19409,4.141248 -0.19408,4.14125 h 0.81018 c 0.44561,0 0.89411,-0.135774 0.99666,-0.301718 0.10256,-0.165946 0.34051,-2.08358 0.52876,-4.261411 0.18827,-2.177833 0.4033,-4.020698 0.47786,-4.09526 0.12938,-0.129379 7.46307,-1.10662 8.42929,-1.123233 0.25466,-0.0044 0.46302,0.121391 0.46302,0.279487 0,0.319924 -3.31629,9.841765 -4.50737,12.941718 -0.41934,1.091407 -1.13373,2.967996 -1.58751,4.170199 -0.45379,1.202203 -0.93602,2.117254 -1.07163,2.033442 -0.46746,-0.288901 -1.24393,0.165804 -1.50743,0.882761 -0.1453,0.395343 -0.40974,2.028494 -0.58765,3.629223 -0.25999,2.33924 -0.58406,3.611407 -1.65127,6.482292 -0.73028,1.964529 -1.36284,3.612709 -1.40567,3.662609 -0.0428,0.0499 -0.26073,-0.26287 -0.48422,-0.69506 z m 6.98191,-6.513 c 0,-0.511969 -0.12654,-1.798918 -0.2812,-2.859887 l -0.2812,-1.929037 1.5039,-4.101042 c 1.36442,-3.7207 5.79604,-16.398221 6.12947,-17.534556 0.11212,-0.382114 0.31528,-0.436846 1.09738,-0.29563 1.22687,0.221528 1.22217,0.215839 1.13529,1.374066 -0.34675,4.623041 -3.50498,14.061493 -7.88114,23.553047 -0.49133,1.065654 -0.89333,2.040893 -0.89333,2.167197 0,0.126307 -0.11906,0.303231 -0.26458,0.393168 -0.15724,0.09718 -0.26459,-0.214135 -0.26459,-0.767326 z m -4.5683,-22.251424 c 0.0785,-1.600729 0.18597,-2.960026 0.23884,-3.020661 0.34644,-0.397287 0.34928,0.563462 0.009,3.06219 l -0.39061,2.868888 0.1427,-2.910417 z" /></svg>
